<?xml version="1.0"?>
<svg width="448" height="512" xmlns="http://www.w3.org/2000/svg" xmlnsSvg="http://www.w3.org/2000/svg">

 <g class="layer">
  <title>Layer 1</title>
  <path d="m224,512c35.32,0 63.97,-28.65 63.97,-64l-127.94,0c0,35.35 28.65,64 63.97,64zm215.39,-149.71c-19.32,-20.76 -55.47,-51.99 -55.47,-154.29c0,-77.7 -54.48,-139.9 -127.94,-155.16l0,-20.84c0,-17.67 -14.32,-32 -31.98,-32s-31.98,14.33 -31.98,32l0,20.84c-73.46,15.26 -127.94,77.46 -127.94,155.16c0,102.3 -36.15,133.53 -55.47,154.29c-6,6.45 -8.66,14.16 -8.61,21.71c0.11,16.4 12.98,32 32.1,32l383.8,0c19.12,0 32,-15.6 32.1,-32c0.05,-7.55 -2.61,-15.27 -8.61,-21.71z" fill="#ef2b5c" id="svg_1"/>
 </g>
</svg>